<mxfile host="app.diagrams.net" agent="Mozilla/5.0 (Windows NT 10.0; Win64; x64) AppleWebKit/537.36 (KHTML, like Gecko) Chrome/129.0.0.0 Safari/537.36" version="24.7.17">
  <diagram name="Page-1" id="srvG8rI-LNK8mP3R9Li0">
    <mxGraphModel dx="1430" dy="786" grid="1" gridSize="10" guides="1" tooltips="1" connect="1" arrows="1" fold="1" page="1" pageScale="1" pageWidth="850" pageHeight="1100" math="0" shadow="0">
      <root>
        <mxCell id="0" />
        <mxCell id="1" parent="0" />
        <mxCell id="g6DjvbqPGPPAgcc8k5a5-132" value="Controller&lt;div&gt;&lt;br&gt;&lt;/div&gt;" style="rounded=0;whiteSpace=wrap;html=1;verticalAlign=bottom;fontSize=16;" vertex="1" parent="1">
          <mxGeometry x="10" y="460" width="740" height="130" as="geometry" />
        </mxCell>
        <mxCell id="g6DjvbqPGPPAgcc8k5a5-3" value="30" style="rounded=0;whiteSpace=wrap;html=1;verticalAlign=bottom;" vertex="1" parent="1">
          <mxGeometry x="90" y="80" width="10" height="130" as="geometry" />
        </mxCell>
        <mxCell id="g6DjvbqPGPPAgcc8k5a5-4" value="" style="rounded=0;whiteSpace=wrap;html=1;verticalAlign=bottom;" vertex="1" parent="1">
          <mxGeometry x="110" y="80" width="10" height="130" as="geometry" />
        </mxCell>
        <mxCell id="g6DjvbqPGPPAgcc8k5a5-5" value="" style="rounded=0;whiteSpace=wrap;html=1;verticalAlign=bottom;" vertex="1" parent="1">
          <mxGeometry x="130" y="80" width="10" height="130" as="geometry" />
        </mxCell>
        <mxCell id="g6DjvbqPGPPAgcc8k5a5-6" value="" style="rounded=0;whiteSpace=wrap;html=1;verticalAlign=bottom;" vertex="1" parent="1">
          <mxGeometry x="150" y="80" width="10" height="130" as="geometry" />
        </mxCell>
        <mxCell id="g6DjvbqPGPPAgcc8k5a5-7" value="" style="rounded=0;whiteSpace=wrap;html=1;verticalAlign=bottom;" vertex="1" parent="1">
          <mxGeometry x="170" y="80" width="10" height="130" as="geometry" />
        </mxCell>
        <mxCell id="g6DjvbqPGPPAgcc8k5a5-8" value="" style="rounded=0;whiteSpace=wrap;html=1;verticalAlign=bottom;" vertex="1" parent="1">
          <mxGeometry x="190" y="80" width="10" height="130" as="geometry" />
        </mxCell>
        <mxCell id="g6DjvbqPGPPAgcc8k5a5-9" value="24" style="rounded=0;whiteSpace=wrap;html=1;verticalAlign=bottom;" vertex="1" parent="1">
          <mxGeometry x="210" y="80" width="10" height="130" as="geometry" />
        </mxCell>
        <mxCell id="g6DjvbqPGPPAgcc8k5a5-10" value="" style="rounded=0;whiteSpace=wrap;html=1;verticalAlign=bottom;" vertex="1" parent="1">
          <mxGeometry x="230" y="80" width="10" height="130" as="geometry" />
        </mxCell>
        <mxCell id="g6DjvbqPGPPAgcc8k5a5-11" value="" style="rounded=0;whiteSpace=wrap;html=1;verticalAlign=bottom;" vertex="1" parent="1">
          <mxGeometry x="250" y="80" width="10" height="130" as="geometry" />
        </mxCell>
        <mxCell id="g6DjvbqPGPPAgcc8k5a5-12" value="" style="rounded=0;whiteSpace=wrap;html=1;verticalAlign=bottom;" vertex="1" parent="1">
          <mxGeometry x="270" y="80" width="10" height="130" as="geometry" />
        </mxCell>
        <mxCell id="g6DjvbqPGPPAgcc8k5a5-13" value="" style="rounded=0;whiteSpace=wrap;html=1;verticalAlign=bottom;" vertex="1" parent="1">
          <mxGeometry x="290" y="80" width="10" height="130" as="geometry" />
        </mxCell>
        <mxCell id="g6DjvbqPGPPAgcc8k5a5-14" value="" style="rounded=0;whiteSpace=wrap;html=1;verticalAlign=bottom;" vertex="1" parent="1">
          <mxGeometry x="310" y="80" width="10" height="130" as="geometry" />
        </mxCell>
        <mxCell id="g6DjvbqPGPPAgcc8k5a5-15" value="" style="rounded=0;whiteSpace=wrap;html=1;verticalAlign=bottom;" vertex="1" parent="1">
          <mxGeometry x="330" y="80" width="10" height="130" as="geometry" />
        </mxCell>
        <mxCell id="g6DjvbqPGPPAgcc8k5a5-16" value="" style="rounded=0;whiteSpace=wrap;html=1;verticalAlign=bottom;" vertex="1" parent="1">
          <mxGeometry x="350" y="80" width="10" height="130" as="geometry" />
        </mxCell>
        <mxCell id="g6DjvbqPGPPAgcc8k5a5-17" value="16" style="rounded=0;whiteSpace=wrap;html=1;verticalAlign=bottom;" vertex="1" parent="1">
          <mxGeometry x="370" y="80" width="10" height="130" as="geometry" />
        </mxCell>
        <mxCell id="g6DjvbqPGPPAgcc8k5a5-19" value="" style="rounded=0;whiteSpace=wrap;html=1;verticalAlign=bottom;" vertex="1" parent="1">
          <mxGeometry x="390" y="80" width="10" height="130" as="geometry" />
        </mxCell>
        <mxCell id="g6DjvbqPGPPAgcc8k5a5-20" value="" style="rounded=0;whiteSpace=wrap;html=1;verticalAlign=bottom;" vertex="1" parent="1">
          <mxGeometry x="410" y="80" width="10" height="130" as="geometry" />
        </mxCell>
        <mxCell id="g6DjvbqPGPPAgcc8k5a5-21" value="" style="rounded=0;whiteSpace=wrap;html=1;verticalAlign=bottom;" vertex="1" parent="1">
          <mxGeometry x="430" y="80" width="10" height="130" as="geometry" />
        </mxCell>
        <mxCell id="g6DjvbqPGPPAgcc8k5a5-22" value="" style="rounded=0;whiteSpace=wrap;html=1;verticalAlign=bottom;" vertex="1" parent="1">
          <mxGeometry x="450" y="80" width="10" height="130" as="geometry" />
        </mxCell>
        <mxCell id="g6DjvbqPGPPAgcc8k5a5-23" value="" style="rounded=0;whiteSpace=wrap;html=1;verticalAlign=bottom;" vertex="1" parent="1">
          <mxGeometry x="470" y="80" width="10" height="130" as="geometry" />
        </mxCell>
        <mxCell id="g6DjvbqPGPPAgcc8k5a5-24" value="" style="rounded=0;whiteSpace=wrap;html=1;verticalAlign=bottom;" vertex="1" parent="1">
          <mxGeometry x="490" y="80" width="10" height="130" as="geometry" />
        </mxCell>
        <mxCell id="g6DjvbqPGPPAgcc8k5a5-25" value="" style="rounded=0;whiteSpace=wrap;html=1;verticalAlign=bottom;" vertex="1" parent="1">
          <mxGeometry x="510" y="80" width="10" height="130" as="geometry" />
        </mxCell>
        <mxCell id="g6DjvbqPGPPAgcc8k5a5-26" value="8" style="rounded=0;whiteSpace=wrap;html=1;verticalAlign=bottom;" vertex="1" parent="1">
          <mxGeometry x="530" y="80" width="10" height="130" as="geometry" />
        </mxCell>
        <mxCell id="g6DjvbqPGPPAgcc8k5a5-27" value="" style="rounded=0;whiteSpace=wrap;html=1;verticalAlign=bottom;" vertex="1" parent="1">
          <mxGeometry x="550" y="80" width="10" height="130" as="geometry" />
        </mxCell>
        <mxCell id="g6DjvbqPGPPAgcc8k5a5-28" value="" style="rounded=0;whiteSpace=wrap;html=1;verticalAlign=bottom;" vertex="1" parent="1">
          <mxGeometry x="570" y="80" width="10" height="130" as="geometry" />
        </mxCell>
        <mxCell id="g6DjvbqPGPPAgcc8k5a5-29" value="" style="rounded=0;whiteSpace=wrap;html=1;verticalAlign=bottom;" vertex="1" parent="1">
          <mxGeometry x="590" y="80" width="10" height="130" as="geometry" />
        </mxCell>
        <mxCell id="g6DjvbqPGPPAgcc8k5a5-30" value="" style="rounded=0;whiteSpace=wrap;html=1;verticalAlign=bottom;" vertex="1" parent="1">
          <mxGeometry x="610" y="80" width="10" height="130" as="geometry" />
        </mxCell>
        <mxCell id="g6DjvbqPGPPAgcc8k5a5-31" value="" style="rounded=0;whiteSpace=wrap;html=1;verticalAlign=bottom;" vertex="1" parent="1">
          <mxGeometry x="630" y="80" width="10" height="130" as="geometry" />
        </mxCell>
        <mxCell id="g6DjvbqPGPPAgcc8k5a5-32" value="" style="rounded=0;whiteSpace=wrap;html=1;verticalAlign=bottom;" vertex="1" parent="1">
          <mxGeometry x="650" y="80" width="10" height="130" as="geometry" />
        </mxCell>
        <mxCell id="g6DjvbqPGPPAgcc8k5a5-33" value="1" style="rounded=0;whiteSpace=wrap;html=1;verticalAlign=bottom;" vertex="1" parent="1">
          <mxGeometry x="670" y="80" width="10" height="130" as="geometry" />
        </mxCell>
        <mxCell id="g6DjvbqPGPPAgcc8k5a5-35" value="32" style="rounded=0;whiteSpace=wrap;html=1;verticalAlign=bottom;" vertex="1" parent="1">
          <mxGeometry x="40" y="400" width="10" height="130" as="geometry" />
        </mxCell>
        <mxCell id="g6DjvbqPGPPAgcc8k5a5-36" value="" style="rounded=0;whiteSpace=wrap;html=1;" vertex="1" parent="1">
          <mxGeometry x="60" y="400" width="10" height="130" as="geometry" />
        </mxCell>
        <mxCell id="g6DjvbqPGPPAgcc8k5a5-37" value="" style="rounded=0;whiteSpace=wrap;html=1;" vertex="1" parent="1">
          <mxGeometry x="80" y="400" width="10" height="130" as="geometry" />
        </mxCell>
        <mxCell id="g6DjvbqPGPPAgcc8k5a5-38" value="" style="rounded=0;whiteSpace=wrap;html=1;" vertex="1" parent="1">
          <mxGeometry x="100" y="400" width="10" height="130" as="geometry" />
        </mxCell>
        <mxCell id="g6DjvbqPGPPAgcc8k5a5-39" value="" style="rounded=0;whiteSpace=wrap;html=1;" vertex="1" parent="1">
          <mxGeometry x="120" y="400" width="10" height="130" as="geometry" />
        </mxCell>
        <mxCell id="g6DjvbqPGPPAgcc8k5a5-40" value="" style="rounded=0;whiteSpace=wrap;html=1;" vertex="1" parent="1">
          <mxGeometry x="140" y="400" width="10" height="130" as="geometry" />
        </mxCell>
        <mxCell id="g6DjvbqPGPPAgcc8k5a5-41" value="" style="rounded=0;whiteSpace=wrap;html=1;" vertex="1" parent="1">
          <mxGeometry x="160" y="400" width="10" height="130" as="geometry" />
        </mxCell>
        <mxCell id="g6DjvbqPGPPAgcc8k5a5-42" value="" style="rounded=0;whiteSpace=wrap;html=1;" vertex="1" parent="1">
          <mxGeometry x="180" y="400" width="10" height="130" as="geometry" />
        </mxCell>
        <mxCell id="g6DjvbqPGPPAgcc8k5a5-43" value="" style="rounded=0;whiteSpace=wrap;html=1;" vertex="1" parent="1">
          <mxGeometry x="200" y="400" width="10" height="130" as="geometry" />
        </mxCell>
        <mxCell id="g6DjvbqPGPPAgcc8k5a5-44" value="" style="rounded=0;whiteSpace=wrap;html=1;" vertex="1" parent="1">
          <mxGeometry x="220" y="400" width="10" height="130" as="geometry" />
        </mxCell>
        <mxCell id="g6DjvbqPGPPAgcc8k5a5-45" value="" style="rounded=0;whiteSpace=wrap;html=1;" vertex="1" parent="1">
          <mxGeometry x="240" y="400" width="10" height="130" as="geometry" />
        </mxCell>
        <mxCell id="g6DjvbqPGPPAgcc8k5a5-46" value="" style="rounded=0;whiteSpace=wrap;html=1;" vertex="1" parent="1">
          <mxGeometry x="260" y="400" width="10" height="130" as="geometry" />
        </mxCell>
        <mxCell id="g6DjvbqPGPPAgcc8k5a5-47" value="" style="rounded=0;whiteSpace=wrap;html=1;" vertex="1" parent="1">
          <mxGeometry x="280" y="400" width="10" height="130" as="geometry" />
        </mxCell>
        <mxCell id="g6DjvbqPGPPAgcc8k5a5-48" value="" style="rounded=0;whiteSpace=wrap;html=1;" vertex="1" parent="1">
          <mxGeometry x="300" y="400" width="10" height="130" as="geometry" />
        </mxCell>
        <mxCell id="g6DjvbqPGPPAgcc8k5a5-49" value="" style="rounded=0;whiteSpace=wrap;html=1;" vertex="1" parent="1">
          <mxGeometry x="320" y="400" width="10" height="130" as="geometry" />
        </mxCell>
        <mxCell id="g6DjvbqPGPPAgcc8k5a5-50" value="17" style="rounded=0;whiteSpace=wrap;html=1;verticalAlign=bottom;" vertex="1" parent="1">
          <mxGeometry x="340" y="400" width="10" height="130" as="geometry" />
        </mxCell>
        <mxCell id="g6DjvbqPGPPAgcc8k5a5-52" value="Front (Out facing)" style="rounded=0;whiteSpace=wrap;html=1;align=center;" vertex="1" parent="1">
          <mxGeometry x="30" y="435" width="330" height="60" as="geometry" />
        </mxCell>
        <mxCell id="g6DjvbqPGPPAgcc8k5a5-53" value="1" style="rounded=0;whiteSpace=wrap;html=1;verticalAlign=bottom;" vertex="1" parent="1">
          <mxGeometry x="420.01" y="400" width="10" height="130" as="geometry" />
        </mxCell>
        <mxCell id="g6DjvbqPGPPAgcc8k5a5-54" value="" style="rounded=0;whiteSpace=wrap;html=1;" vertex="1" parent="1">
          <mxGeometry x="440.01" y="400" width="10" height="130" as="geometry" />
        </mxCell>
        <mxCell id="g6DjvbqPGPPAgcc8k5a5-55" value="" style="rounded=0;whiteSpace=wrap;html=1;" vertex="1" parent="1">
          <mxGeometry x="460.01" y="400" width="10" height="130" as="geometry" />
        </mxCell>
        <mxCell id="g6DjvbqPGPPAgcc8k5a5-56" value="" style="rounded=0;whiteSpace=wrap;html=1;" vertex="1" parent="1">
          <mxGeometry x="480.01" y="400" width="10" height="130" as="geometry" />
        </mxCell>
        <mxCell id="g6DjvbqPGPPAgcc8k5a5-57" value="" style="rounded=0;whiteSpace=wrap;html=1;" vertex="1" parent="1">
          <mxGeometry x="500.01" y="400" width="10" height="130" as="geometry" />
        </mxCell>
        <mxCell id="g6DjvbqPGPPAgcc8k5a5-58" value="" style="rounded=0;whiteSpace=wrap;html=1;" vertex="1" parent="1">
          <mxGeometry x="520.01" y="400" width="10" height="130" as="geometry" />
        </mxCell>
        <mxCell id="g6DjvbqPGPPAgcc8k5a5-59" value="" style="rounded=0;whiteSpace=wrap;html=1;" vertex="1" parent="1">
          <mxGeometry x="540.01" y="400" width="10" height="130" as="geometry" />
        </mxCell>
        <mxCell id="g6DjvbqPGPPAgcc8k5a5-60" value="" style="rounded=0;whiteSpace=wrap;html=1;" vertex="1" parent="1">
          <mxGeometry x="560.01" y="400" width="10" height="130" as="geometry" />
        </mxCell>
        <mxCell id="g6DjvbqPGPPAgcc8k5a5-61" value="" style="rounded=0;whiteSpace=wrap;html=1;" vertex="1" parent="1">
          <mxGeometry x="580.01" y="400" width="10" height="130" as="geometry" />
        </mxCell>
        <mxCell id="g6DjvbqPGPPAgcc8k5a5-62" value="" style="rounded=0;whiteSpace=wrap;html=1;" vertex="1" parent="1">
          <mxGeometry x="600.01" y="400" width="10" height="130" as="geometry" />
        </mxCell>
        <mxCell id="g6DjvbqPGPPAgcc8k5a5-63" value="" style="rounded=0;whiteSpace=wrap;html=1;" vertex="1" parent="1">
          <mxGeometry x="620.01" y="400" width="10" height="130" as="geometry" />
        </mxCell>
        <mxCell id="g6DjvbqPGPPAgcc8k5a5-64" value="" style="rounded=0;whiteSpace=wrap;html=1;" vertex="1" parent="1">
          <mxGeometry x="640.01" y="400" width="10" height="130" as="geometry" />
        </mxCell>
        <mxCell id="g6DjvbqPGPPAgcc8k5a5-65" value="" style="rounded=0;whiteSpace=wrap;html=1;" vertex="1" parent="1">
          <mxGeometry x="660.01" y="400" width="10" height="130" as="geometry" />
        </mxCell>
        <mxCell id="g6DjvbqPGPPAgcc8k5a5-66" value="" style="rounded=0;whiteSpace=wrap;html=1;" vertex="1" parent="1">
          <mxGeometry x="680.01" y="400" width="10" height="130" as="geometry" />
        </mxCell>
        <mxCell id="g6DjvbqPGPPAgcc8k5a5-67" value="" style="rounded=0;whiteSpace=wrap;html=1;" vertex="1" parent="1">
          <mxGeometry x="700.01" y="400" width="10" height="130" as="geometry" />
        </mxCell>
        <mxCell id="g6DjvbqPGPPAgcc8k5a5-68" value="16" style="rounded=0;whiteSpace=wrap;html=1;verticalAlign=bottom;" vertex="1" parent="1">
          <mxGeometry x="720.01" y="400" width="10" height="130" as="geometry" />
        </mxCell>
        <mxCell id="g6DjvbqPGPPAgcc8k5a5-69" value="Back (Player facing)" style="rounded=0;whiteSpace=wrap;html=1;align=center;" vertex="1" parent="1">
          <mxGeometry x="410.01" y="435" width="330" height="60" as="geometry" />
        </mxCell>
        <mxCell id="g6DjvbqPGPPAgcc8k5a5-1" value="Cable (Contact side)" style="rounded=0;whiteSpace=wrap;html=1;" vertex="1" parent="1">
          <mxGeometry x="80" y="110" width="610" height="60" as="geometry" />
        </mxCell>
        <mxCell id="g6DjvbqPGPPAgcc8k5a5-134" style="rounded=0;orthogonalLoop=1;jettySize=auto;html=1;exitX=1;exitY=0.5;exitDx=0;exitDy=0;entryX=0.5;entryY=1;entryDx=0;entryDy=0;" edge="1" parent="1" source="g6DjvbqPGPPAgcc8k5a5-99" target="g6DjvbqPGPPAgcc8k5a5-4">
          <mxGeometry relative="1" as="geometry" />
        </mxCell>
        <mxCell id="g6DjvbqPGPPAgcc8k5a5-99" value="29" style="text;html=1;align=right;verticalAlign=middle;whiteSpace=wrap;rounded=0;rotation=-90;fontSize=10;" vertex="1" parent="1">
          <mxGeometry x="-1.87" y="441.88" width="93.75" height="10" as="geometry" />
        </mxCell>
        <mxCell id="g6DjvbqPGPPAgcc8k5a5-135" style="rounded=0;orthogonalLoop=1;jettySize=auto;html=1;exitX=1;exitY=0.5;exitDx=0;exitDy=0;entryX=0.5;entryY=1;entryDx=0;entryDy=0;" edge="1" parent="1" source="g6DjvbqPGPPAgcc8k5a5-100" target="g6DjvbqPGPPAgcc8k5a5-6">
          <mxGeometry relative="1" as="geometry" />
        </mxCell>
        <mxCell id="g6DjvbqPGPPAgcc8k5a5-100" value="27" style="text;html=1;align=right;verticalAlign=middle;whiteSpace=wrap;rounded=0;rotation=-90;fontSize=10;" vertex="1" parent="1">
          <mxGeometry x="18.119999999999997" y="441.88" width="93.75" height="10" as="geometry" />
        </mxCell>
        <mxCell id="g6DjvbqPGPPAgcc8k5a5-136" style="rounded=0;orthogonalLoop=1;jettySize=auto;html=1;exitX=1;exitY=0.5;exitDx=0;exitDy=0;entryX=0.5;entryY=1;entryDx=0;entryDy=0;" edge="1" parent="1" source="g6DjvbqPGPPAgcc8k5a5-101" target="g6DjvbqPGPPAgcc8k5a5-7">
          <mxGeometry relative="1" as="geometry" />
        </mxCell>
        <mxCell id="g6DjvbqPGPPAgcc8k5a5-101" value="26" style="text;html=1;align=right;verticalAlign=middle;whiteSpace=wrap;rounded=0;rotation=-90;fontSize=10;" vertex="1" parent="1">
          <mxGeometry x="38.12" y="441.88" width="93.75" height="10" as="geometry" />
        </mxCell>
        <mxCell id="g6DjvbqPGPPAgcc8k5a5-137" style="rounded=0;orthogonalLoop=1;jettySize=auto;html=1;exitX=1;exitY=0.5;exitDx=0;exitDy=0;entryX=0.5;entryY=1;entryDx=0;entryDy=0;" edge="1" parent="1" source="g6DjvbqPGPPAgcc8k5a5-102" target="g6DjvbqPGPPAgcc8k5a5-8">
          <mxGeometry relative="1" as="geometry" />
        </mxCell>
        <mxCell id="g6DjvbqPGPPAgcc8k5a5-102" value="25" style="text;html=1;align=right;verticalAlign=middle;whiteSpace=wrap;rounded=0;rotation=-90;fontSize=10;" vertex="1" parent="1">
          <mxGeometry x="58.12" y="441.88" width="93.75" height="10" as="geometry" />
        </mxCell>
        <mxCell id="g6DjvbqPGPPAgcc8k5a5-138" style="rounded=0;orthogonalLoop=1;jettySize=auto;html=1;exitX=1;exitY=0.5;exitDx=0;exitDy=0;entryX=0.5;entryY=1;entryDx=0;entryDy=0;" edge="1" parent="1" source="g6DjvbqPGPPAgcc8k5a5-103" target="g6DjvbqPGPPAgcc8k5a5-10">
          <mxGeometry relative="1" as="geometry" />
        </mxCell>
        <mxCell id="g6DjvbqPGPPAgcc8k5a5-103" value="23" style="text;html=1;align=right;verticalAlign=middle;whiteSpace=wrap;rounded=0;rotation=-90;fontSize=10;" vertex="1" parent="1">
          <mxGeometry x="78.12" y="441.88" width="93.75" height="10" as="geometry" />
        </mxCell>
        <mxCell id="g6DjvbqPGPPAgcc8k5a5-139" style="rounded=0;orthogonalLoop=1;jettySize=auto;html=1;exitX=1;exitY=0.5;exitDx=0;exitDy=0;entryX=0.5;entryY=1;entryDx=0;entryDy=0;" edge="1" parent="1" source="g6DjvbqPGPPAgcc8k5a5-104" target="g6DjvbqPGPPAgcc8k5a5-12">
          <mxGeometry relative="1" as="geometry" />
        </mxCell>
        <mxCell id="g6DjvbqPGPPAgcc8k5a5-104" value="21" style="text;html=1;align=right;verticalAlign=middle;whiteSpace=wrap;rounded=0;rotation=-90;fontSize=10;" vertex="1" parent="1">
          <mxGeometry x="98.12" y="441.88" width="93.75" height="10" as="geometry" />
        </mxCell>
        <mxCell id="g6DjvbqPGPPAgcc8k5a5-140" style="rounded=0;orthogonalLoop=1;jettySize=auto;html=1;exitX=1;exitY=0.5;exitDx=0;exitDy=0;entryX=0.5;entryY=1;entryDx=0;entryDy=0;" edge="1" parent="1" source="g6DjvbqPGPPAgcc8k5a5-105" target="g6DjvbqPGPPAgcc8k5a5-14">
          <mxGeometry relative="1" as="geometry" />
        </mxCell>
        <mxCell id="g6DjvbqPGPPAgcc8k5a5-105" value="19" style="text;html=1;align=right;verticalAlign=middle;whiteSpace=wrap;rounded=0;rotation=-90;fontSize=10;" vertex="1" parent="1">
          <mxGeometry x="118.12" y="441.88" width="93.75" height="10" as="geometry" />
        </mxCell>
        <mxCell id="g6DjvbqPGPPAgcc8k5a5-141" style="rounded=0;orthogonalLoop=1;jettySize=auto;html=1;exitX=1;exitY=0.5;exitDx=0;exitDy=0;entryX=0.5;entryY=1;entryDx=0;entryDy=0;" edge="1" parent="1" source="g6DjvbqPGPPAgcc8k5a5-106" target="g6DjvbqPGPPAgcc8k5a5-16">
          <mxGeometry relative="1" as="geometry" />
        </mxCell>
        <mxCell id="g6DjvbqPGPPAgcc8k5a5-106" value="17" style="text;html=1;align=right;verticalAlign=middle;whiteSpace=wrap;rounded=0;rotation=-90;fontSize=10;" vertex="1" parent="1">
          <mxGeometry x="138.12" y="441.88" width="93.75" height="10" as="geometry" />
        </mxCell>
        <mxCell id="g6DjvbqPGPPAgcc8k5a5-142" style="rounded=0;orthogonalLoop=1;jettySize=auto;html=1;exitX=1;exitY=0.5;exitDx=0;exitDy=0;entryX=0.5;entryY=1;entryDx=0;entryDy=0;" edge="1" parent="1" source="g6DjvbqPGPPAgcc8k5a5-107" target="g6DjvbqPGPPAgcc8k5a5-19">
          <mxGeometry relative="1" as="geometry" />
        </mxCell>
        <mxCell id="g6DjvbqPGPPAgcc8k5a5-107" value="15" style="text;html=1;align=right;verticalAlign=middle;whiteSpace=wrap;rounded=0;rotation=-90;fontSize=10;" vertex="1" parent="1">
          <mxGeometry x="158.12" y="441.88" width="93.75" height="10" as="geometry" />
        </mxCell>
        <mxCell id="g6DjvbqPGPPAgcc8k5a5-143" style="rounded=0;orthogonalLoop=1;jettySize=auto;html=1;exitX=1;exitY=0.5;exitDx=0;exitDy=0;entryX=0.5;entryY=1;entryDx=0;entryDy=0;" edge="1" parent="1" source="g6DjvbqPGPPAgcc8k5a5-108" target="g6DjvbqPGPPAgcc8k5a5-21">
          <mxGeometry relative="1" as="geometry" />
        </mxCell>
        <mxCell id="g6DjvbqPGPPAgcc8k5a5-108" value="13" style="text;html=1;align=right;verticalAlign=middle;whiteSpace=wrap;rounded=0;rotation=-90;fontSize=10;" vertex="1" parent="1">
          <mxGeometry x="178.12" y="441.88" width="93.75" height="10" as="geometry" />
        </mxCell>
        <mxCell id="g6DjvbqPGPPAgcc8k5a5-144" style="rounded=0;orthogonalLoop=1;jettySize=auto;html=1;exitX=1;exitY=0.5;exitDx=0;exitDy=0;entryX=0.5;entryY=1;entryDx=0;entryDy=0;" edge="1" parent="1" source="g6DjvbqPGPPAgcc8k5a5-109" target="g6DjvbqPGPPAgcc8k5a5-23">
          <mxGeometry relative="1" as="geometry" />
        </mxCell>
        <mxCell id="g6DjvbqPGPPAgcc8k5a5-109" value="11" style="text;html=1;align=right;verticalAlign=middle;whiteSpace=wrap;rounded=0;rotation=-90;fontSize=10;" vertex="1" parent="1">
          <mxGeometry x="198.12" y="441.88" width="93.75" height="10" as="geometry" />
        </mxCell>
        <mxCell id="g6DjvbqPGPPAgcc8k5a5-145" style="rounded=0;orthogonalLoop=1;jettySize=auto;html=1;exitX=1;exitY=0.5;exitDx=0;exitDy=0;entryX=0.5;entryY=1;entryDx=0;entryDy=0;" edge="1" parent="1" source="g6DjvbqPGPPAgcc8k5a5-110" target="g6DjvbqPGPPAgcc8k5a5-25">
          <mxGeometry relative="1" as="geometry" />
        </mxCell>
        <mxCell id="g6DjvbqPGPPAgcc8k5a5-110" value="9" style="text;html=1;align=right;verticalAlign=middle;whiteSpace=wrap;rounded=0;rotation=-90;fontSize=10;" vertex="1" parent="1">
          <mxGeometry x="218.12" y="441.88" width="93.75" height="10" as="geometry" />
        </mxCell>
        <mxCell id="g6DjvbqPGPPAgcc8k5a5-146" style="rounded=0;orthogonalLoop=1;jettySize=auto;html=1;exitX=1;exitY=0.5;exitDx=0;exitDy=0;entryX=0.5;entryY=1;entryDx=0;entryDy=0;" edge="1" parent="1" source="g6DjvbqPGPPAgcc8k5a5-111" target="g6DjvbqPGPPAgcc8k5a5-27">
          <mxGeometry relative="1" as="geometry" />
        </mxCell>
        <mxCell id="g6DjvbqPGPPAgcc8k5a5-111" value="7" style="text;html=1;align=right;verticalAlign=middle;whiteSpace=wrap;rounded=0;rotation=-90;fontSize=10;" vertex="1" parent="1">
          <mxGeometry x="238.12" y="441.88" width="93.75" height="10" as="geometry" />
        </mxCell>
        <mxCell id="g6DjvbqPGPPAgcc8k5a5-147" style="rounded=0;orthogonalLoop=1;jettySize=auto;html=1;exitX=1;exitY=0.5;exitDx=0;exitDy=0;entryX=0.5;entryY=1;entryDx=0;entryDy=0;" edge="1" parent="1" source="g6DjvbqPGPPAgcc8k5a5-112" target="g6DjvbqPGPPAgcc8k5a5-29">
          <mxGeometry relative="1" as="geometry" />
        </mxCell>
        <mxCell id="g6DjvbqPGPPAgcc8k5a5-112" value="5" style="text;html=1;align=right;verticalAlign=middle;whiteSpace=wrap;rounded=0;rotation=-90;fontSize=10;" vertex="1" parent="1">
          <mxGeometry x="258.12" y="441.88" width="93.75" height="10" as="geometry" />
        </mxCell>
        <mxCell id="g6DjvbqPGPPAgcc8k5a5-148" style="rounded=0;orthogonalLoop=1;jettySize=auto;html=1;exitX=1;exitY=0.5;exitDx=0;exitDy=0;entryX=0.5;entryY=1;entryDx=0;entryDy=0;" edge="1" parent="1" source="g6DjvbqPGPPAgcc8k5a5-113" target="g6DjvbqPGPPAgcc8k5a5-31">
          <mxGeometry relative="1" as="geometry" />
        </mxCell>
        <mxCell id="g6DjvbqPGPPAgcc8k5a5-113" value="3" style="text;html=1;align=right;verticalAlign=middle;whiteSpace=wrap;rounded=0;rotation=-90;fontSize=10;" vertex="1" parent="1">
          <mxGeometry x="278.12" y="441.88" width="93.75" height="10" as="geometry" />
        </mxCell>
        <mxCell id="g6DjvbqPGPPAgcc8k5a5-149" style="rounded=0;orthogonalLoop=1;jettySize=auto;html=1;exitX=1;exitY=0.5;exitDx=0;exitDy=0;entryX=0.5;entryY=1;entryDx=0;entryDy=0;" edge="1" parent="1" source="g6DjvbqPGPPAgcc8k5a5-114" target="g6DjvbqPGPPAgcc8k5a5-33">
          <mxGeometry relative="1" as="geometry" />
        </mxCell>
        <mxCell id="g6DjvbqPGPPAgcc8k5a5-150" style="rounded=0;orthogonalLoop=1;jettySize=auto;html=1;exitX=1;exitY=0.5;exitDx=0;exitDy=0;entryX=0.5;entryY=1;entryDx=0;entryDy=0;" edge="1" parent="1" source="g6DjvbqPGPPAgcc8k5a5-114" target="g6DjvbqPGPPAgcc8k5a5-3">
          <mxGeometry relative="1" as="geometry" />
        </mxCell>
        <mxCell id="g6DjvbqPGPPAgcc8k5a5-114" value="1 , 30" style="text;html=1;align=right;verticalAlign=middle;whiteSpace=wrap;rounded=0;rotation=-90;fontSize=10;" vertex="1" parent="1">
          <mxGeometry x="298.12" y="441.88" width="93.75" height="10" as="geometry" />
        </mxCell>
        <mxCell id="g6DjvbqPGPPAgcc8k5a5-151" style="rounded=0;orthogonalLoop=1;jettySize=auto;html=1;exitX=1;exitY=0.5;exitDx=0;exitDy=0;entryX=0.5;entryY=1;entryDx=0;entryDy=0;" edge="1" parent="1" source="g6DjvbqPGPPAgcc8k5a5-115" target="g6DjvbqPGPPAgcc8k5a5-3">
          <mxGeometry relative="1" as="geometry" />
        </mxCell>
        <mxCell id="g6DjvbqPGPPAgcc8k5a5-152" style="rounded=0;orthogonalLoop=1;jettySize=auto;html=1;exitX=1;exitY=0.5;exitDx=0;exitDy=0;entryX=0.5;entryY=1;entryDx=0;entryDy=0;" edge="1" parent="1" source="g6DjvbqPGPPAgcc8k5a5-115" target="g6DjvbqPGPPAgcc8k5a5-33">
          <mxGeometry relative="1" as="geometry" />
        </mxCell>
        <mxCell id="g6DjvbqPGPPAgcc8k5a5-115" value="1, 30" style="text;html=1;align=right;verticalAlign=middle;whiteSpace=wrap;rounded=0;rotation=-90;fontSize=10;" vertex="1" parent="1">
          <mxGeometry x="378.13" y="441.88" width="93.75" height="10" as="geometry" />
        </mxCell>
        <mxCell id="g6DjvbqPGPPAgcc8k5a5-153" style="rounded=0;orthogonalLoop=1;jettySize=auto;html=1;exitX=1;exitY=0.5;exitDx=0;exitDy=0;entryX=0.5;entryY=1;entryDx=0;entryDy=0;" edge="1" parent="1" source="g6DjvbqPGPPAgcc8k5a5-116" target="g6DjvbqPGPPAgcc8k5a5-32">
          <mxGeometry relative="1" as="geometry" />
        </mxCell>
        <mxCell id="g6DjvbqPGPPAgcc8k5a5-116" value="2" style="text;html=1;align=right;verticalAlign=middle;whiteSpace=wrap;rounded=0;rotation=-90;fontSize=10;" vertex="1" parent="1">
          <mxGeometry x="398.13" y="441.88" width="93.75" height="10" as="geometry" />
        </mxCell>
        <mxCell id="g6DjvbqPGPPAgcc8k5a5-154" style="rounded=0;orthogonalLoop=1;jettySize=auto;html=1;exitX=1;exitY=0.5;exitDx=0;exitDy=0;entryX=0.5;entryY=1;entryDx=0;entryDy=0;" edge="1" parent="1" source="g6DjvbqPGPPAgcc8k5a5-117" target="g6DjvbqPGPPAgcc8k5a5-30">
          <mxGeometry relative="1" as="geometry" />
        </mxCell>
        <mxCell id="g6DjvbqPGPPAgcc8k5a5-117" value="4" style="text;html=1;align=right;verticalAlign=middle;whiteSpace=wrap;rounded=0;rotation=-90;fontSize=10;" vertex="1" parent="1">
          <mxGeometry x="418.13" y="441.88" width="93.75" height="10" as="geometry" />
        </mxCell>
        <mxCell id="g6DjvbqPGPPAgcc8k5a5-155" style="rounded=0;orthogonalLoop=1;jettySize=auto;html=1;exitX=1;exitY=0.5;exitDx=0;exitDy=0;entryX=0.5;entryY=1;entryDx=0;entryDy=0;" edge="1" parent="1" source="g6DjvbqPGPPAgcc8k5a5-118" target="g6DjvbqPGPPAgcc8k5a5-28">
          <mxGeometry relative="1" as="geometry" />
        </mxCell>
        <mxCell id="g6DjvbqPGPPAgcc8k5a5-118" value="6" style="text;html=1;align=right;verticalAlign=middle;whiteSpace=wrap;rounded=0;rotation=-90;fontSize=10;" vertex="1" parent="1">
          <mxGeometry x="438.13" y="441.88" width="93.75" height="10" as="geometry" />
        </mxCell>
        <mxCell id="g6DjvbqPGPPAgcc8k5a5-156" style="rounded=0;orthogonalLoop=1;jettySize=auto;html=1;exitX=1;exitY=0.5;exitDx=0;exitDy=0;entryX=0.5;entryY=1;entryDx=0;entryDy=0;" edge="1" parent="1" source="g6DjvbqPGPPAgcc8k5a5-119" target="g6DjvbqPGPPAgcc8k5a5-26">
          <mxGeometry relative="1" as="geometry" />
        </mxCell>
        <mxCell id="g6DjvbqPGPPAgcc8k5a5-119" value="8" style="text;html=1;align=right;verticalAlign=middle;whiteSpace=wrap;rounded=0;rotation=-90;fontSize=10;" vertex="1" parent="1">
          <mxGeometry x="458.13" y="441.88" width="93.75" height="10" as="geometry" />
        </mxCell>
        <mxCell id="g6DjvbqPGPPAgcc8k5a5-157" style="rounded=0;orthogonalLoop=1;jettySize=auto;html=1;exitX=1;exitY=0.5;exitDx=0;exitDy=0;entryX=0.5;entryY=1;entryDx=0;entryDy=0;" edge="1" parent="1" source="g6DjvbqPGPPAgcc8k5a5-120" target="g6DjvbqPGPPAgcc8k5a5-24">
          <mxGeometry relative="1" as="geometry" />
        </mxCell>
        <mxCell id="g6DjvbqPGPPAgcc8k5a5-120" value="10" style="text;html=1;align=right;verticalAlign=middle;whiteSpace=wrap;rounded=0;rotation=-90;fontSize=10;" vertex="1" parent="1">
          <mxGeometry x="478.13" y="441.88" width="93.75" height="10" as="geometry" />
        </mxCell>
        <mxCell id="g6DjvbqPGPPAgcc8k5a5-158" style="rounded=0;orthogonalLoop=1;jettySize=auto;html=1;exitX=1;exitY=0.5;exitDx=0;exitDy=0;entryX=0.5;entryY=1;entryDx=0;entryDy=0;" edge="1" parent="1" source="g6DjvbqPGPPAgcc8k5a5-121" target="g6DjvbqPGPPAgcc8k5a5-22">
          <mxGeometry relative="1" as="geometry" />
        </mxCell>
        <mxCell id="g6DjvbqPGPPAgcc8k5a5-121" value="12" style="text;html=1;align=right;verticalAlign=middle;whiteSpace=wrap;rounded=0;rotation=-90;fontSize=10;" vertex="1" parent="1">
          <mxGeometry x="498.13" y="441.88" width="93.75" height="10" as="geometry" />
        </mxCell>
        <mxCell id="g6DjvbqPGPPAgcc8k5a5-159" style="rounded=0;orthogonalLoop=1;jettySize=auto;html=1;exitX=1;exitY=0.5;exitDx=0;exitDy=0;entryX=0.5;entryY=1;entryDx=0;entryDy=0;" edge="1" parent="1" source="g6DjvbqPGPPAgcc8k5a5-122" target="g6DjvbqPGPPAgcc8k5a5-20">
          <mxGeometry relative="1" as="geometry" />
        </mxCell>
        <mxCell id="g6DjvbqPGPPAgcc8k5a5-122" value="14" style="text;html=1;align=right;verticalAlign=middle;whiteSpace=wrap;rounded=0;rotation=-90;fontSize=10;" vertex="1" parent="1">
          <mxGeometry x="518.13" y="441.88" width="93.75" height="10" as="geometry" />
        </mxCell>
        <mxCell id="g6DjvbqPGPPAgcc8k5a5-160" style="rounded=0;orthogonalLoop=1;jettySize=auto;html=1;exitX=1;exitY=0.5;exitDx=0;exitDy=0;entryX=0.5;entryY=1;entryDx=0;entryDy=0;" edge="1" parent="1" source="g6DjvbqPGPPAgcc8k5a5-123" target="g6DjvbqPGPPAgcc8k5a5-17">
          <mxGeometry relative="1" as="geometry" />
        </mxCell>
        <mxCell id="g6DjvbqPGPPAgcc8k5a5-123" value="16" style="text;html=1;align=right;verticalAlign=middle;whiteSpace=wrap;rounded=0;rotation=-90;fontSize=10;" vertex="1" parent="1">
          <mxGeometry x="538.13" y="441.88" width="93.75" height="10" as="geometry" />
        </mxCell>
        <mxCell id="g6DjvbqPGPPAgcc8k5a5-161" style="rounded=0;orthogonalLoop=1;jettySize=auto;html=1;exitX=1;exitY=0.5;exitDx=0;exitDy=0;entryX=0.5;entryY=1;entryDx=0;entryDy=0;" edge="1" parent="1" source="g6DjvbqPGPPAgcc8k5a5-124" target="g6DjvbqPGPPAgcc8k5a5-15">
          <mxGeometry relative="1" as="geometry" />
        </mxCell>
        <mxCell id="g6DjvbqPGPPAgcc8k5a5-124" value="18" style="text;html=1;align=right;verticalAlign=middle;whiteSpace=wrap;rounded=0;rotation=-90;fontSize=10;" vertex="1" parent="1">
          <mxGeometry x="558.13" y="441.88" width="93.75" height="10" as="geometry" />
        </mxCell>
        <mxCell id="g6DjvbqPGPPAgcc8k5a5-162" style="rounded=0;orthogonalLoop=1;jettySize=auto;html=1;exitX=1;exitY=0.5;exitDx=0;exitDy=0;entryX=0.5;entryY=1;entryDx=0;entryDy=0;" edge="1" parent="1" source="g6DjvbqPGPPAgcc8k5a5-125" target="g6DjvbqPGPPAgcc8k5a5-13">
          <mxGeometry relative="1" as="geometry" />
        </mxCell>
        <mxCell id="g6DjvbqPGPPAgcc8k5a5-125" value="20" style="text;html=1;align=right;verticalAlign=middle;whiteSpace=wrap;rounded=0;rotation=-90;fontSize=10;" vertex="1" parent="1">
          <mxGeometry x="578.13" y="441.88" width="93.75" height="10" as="geometry" />
        </mxCell>
        <mxCell id="g6DjvbqPGPPAgcc8k5a5-163" style="rounded=0;orthogonalLoop=1;jettySize=auto;html=1;exitX=1;exitY=0.5;exitDx=0;exitDy=0;entryX=0.5;entryY=1;entryDx=0;entryDy=0;" edge="1" parent="1" source="g6DjvbqPGPPAgcc8k5a5-126" target="g6DjvbqPGPPAgcc8k5a5-11">
          <mxGeometry relative="1" as="geometry" />
        </mxCell>
        <mxCell id="g6DjvbqPGPPAgcc8k5a5-126" value="22" style="text;html=1;align=right;verticalAlign=middle;whiteSpace=wrap;rounded=0;rotation=-90;fontSize=10;" vertex="1" parent="1">
          <mxGeometry x="598.13" y="441.88" width="93.75" height="10" as="geometry" />
        </mxCell>
        <mxCell id="g6DjvbqPGPPAgcc8k5a5-164" style="rounded=0;orthogonalLoop=1;jettySize=auto;html=1;exitX=1;exitY=0.5;exitDx=0;exitDy=0;entryX=0.5;entryY=1;entryDx=0;entryDy=0;" edge="1" parent="1" source="g6DjvbqPGPPAgcc8k5a5-127" target="g6DjvbqPGPPAgcc8k5a5-9">
          <mxGeometry relative="1" as="geometry" />
        </mxCell>
        <mxCell id="g6DjvbqPGPPAgcc8k5a5-127" value="24" style="text;html=1;align=right;verticalAlign=middle;whiteSpace=wrap;rounded=0;rotation=-90;fontSize=10;" vertex="1" parent="1">
          <mxGeometry x="618.13" y="441.88" width="93.75" height="10" as="geometry" />
        </mxCell>
        <mxCell id="g6DjvbqPGPPAgcc8k5a5-165" style="rounded=0;orthogonalLoop=1;jettySize=auto;html=1;exitX=1;exitY=0.5;exitDx=0;exitDy=0;entryX=0.5;entryY=1;entryDx=0;entryDy=0;" edge="1" parent="1" source="g6DjvbqPGPPAgcc8k5a5-128" target="g6DjvbqPGPPAgcc8k5a5-6">
          <mxGeometry relative="1" as="geometry" />
        </mxCell>
        <mxCell id="g6DjvbqPGPPAgcc8k5a5-128" value="27" style="text;html=1;align=right;verticalAlign=middle;whiteSpace=wrap;rounded=0;rotation=-90;fontSize=10;" vertex="1" parent="1">
          <mxGeometry x="638.14" y="441.88" width="93.75" height="10" as="geometry" />
        </mxCell>
        <mxCell id="g6DjvbqPGPPAgcc8k5a5-166" style="rounded=0;orthogonalLoop=1;jettySize=auto;html=1;exitX=1;exitY=0.5;exitDx=0;exitDy=0;entryX=0.5;entryY=1;entryDx=0;entryDy=0;" edge="1" parent="1" source="g6DjvbqPGPPAgcc8k5a5-129" target="g6DjvbqPGPPAgcc8k5a5-6">
          <mxGeometry relative="1" as="geometry" />
        </mxCell>
        <mxCell id="g6DjvbqPGPPAgcc8k5a5-129" value="27" style="text;html=1;align=right;verticalAlign=middle;whiteSpace=wrap;rounded=0;rotation=-90;fontSize=10;" vertex="1" parent="1">
          <mxGeometry x="658.13" y="441.88" width="93.75" height="10" as="geometry" />
        </mxCell>
        <mxCell id="g6DjvbqPGPPAgcc8k5a5-167" style="rounded=0;orthogonalLoop=1;jettySize=auto;html=1;exitX=1;exitY=0.5;exitDx=0;exitDy=0;entryX=0.5;entryY=1;entryDx=0;entryDy=0;" edge="1" parent="1" source="g6DjvbqPGPPAgcc8k5a5-130" target="g6DjvbqPGPPAgcc8k5a5-5">
          <mxGeometry relative="1" as="geometry" />
        </mxCell>
        <mxCell id="g6DjvbqPGPPAgcc8k5a5-130" value="28" style="text;html=1;align=right;verticalAlign=middle;whiteSpace=wrap;rounded=0;rotation=-90;fontSize=10;" vertex="1" parent="1">
          <mxGeometry x="678.13" y="441.88" width="93.75" height="10" as="geometry" />
        </mxCell>
      </root>
    </mxGraphModel>
  </diagram>
</mxfile>
